<?xml version="1.0" encoding="UTF-8"?><svg id="a" xmlns="http://www.w3.org/2000/svg" xmlns:xlink="http://www.w3.org/1999/xlink" viewBox="0 0 1500 1500"><defs><style>.c{fill:url(#b);}.d{fill:#302250;}</style><linearGradient id="b" x1="266.67" y1="750" x2="420.14" y2="750" gradientTransform="matrix(1, 0, 0, 1, 0, 0)" gradientUnits="userSpaceOnUse"><stop offset="0" stop-color="#0f0816"/><stop offset=".29" stop-color="#302250"/><stop offset="1" stop-color="#dd2068"/><stop offset="1" stop-color="#a1285e"/></linearGradient></defs><path class="c" d="M317.17,722.1v56.16h102.97v-81.07c0-14.25-11.57-25.76-25.82-25.76h-101.81c-14.25,0-25.82,11.51-25.82,25.76v105.57c0,14.25,11.57,25.82,25.82,25.82h101.81c14.25,0,25.82-11.57,25.82-25.82v-.06h-127.68v-105.21h101.62v54.9h-24.62v-30.28h-52.29Z"/><g><path class="d" d="M528.15,703.62v12.29h-47.18v26.43h42.02v12.29h-42.02v29.2h47.18v12.29h-59.6v-92.5h59.6Z"/><path class="d" d="M536.75,763.21c0-19.29,14.27-33.43,33.96-33.43,14.54,0,24.32,6.61,31.06,18.77l-9.91,8.33c-4.1-9.38-9.65-16.12-21.14-16.12-12.82,0-20.35,10.7-20.35,22.46s7.53,22.2,20.35,22.2c11.36,0,17.05-6.34,21.28-15.59l9.91,8.06-.79,1.19c-6.61,11.63-16.65,17.31-30.26,17.31-19.69,0-34.09-13.61-34.09-33.17Z"/><path class="d" d="M608.51,762.69c0-19.95,14.14-32.9,34.09-32.9s34.23,12.95,34.23,32.9-14.4,33.7-34.23,33.7-34.09-13.74-34.09-33.7Zm34.09,22.6c13.21,0,20.48-10.04,20.48-22.6s-7.14-21.8-20.48-21.8-20.48,9.25-20.48,21.8,7.27,22.6,20.48,22.6Z"/><path class="d" d="M685.42,729.91h12.42v9.12c5.02-5.68,12.03-9.25,19.82-9.25,9.12,0,16.65,4.23,21.01,12.16,5.02-7.53,12.95-12.16,22.47-12.16,15.99,0,24.45,12.82,24.45,27.62v38.72h-12.42v-37.79c0-10.7-4.89-17.71-12.69-17.71-8.85,0-18.1,9.25-18.1,17.84v37.66h-12.42v-37.79c0-8.59-3.44-17.71-13.61-17.71-11.76,0-18.5,11.1-18.5,21.67v33.83h-12.42v-66.21Z"/><path class="d" d="M796.16,729.91h12.42v9.12c5.02-5.68,12.03-9.25,19.82-9.25,9.12,0,16.65,4.23,21.01,12.16,5.02-7.53,12.95-12.16,22.47-12.16,15.99,0,24.45,12.82,24.45,27.62v38.72h-12.42v-37.79c0-10.7-4.89-17.71-12.69-17.71-8.85,0-18.1,9.25-18.1,17.84v37.66h-12.42v-37.79c0-8.59-3.44-17.71-13.61-17.71-11.76,0-18.5,11.1-18.5,21.67v33.83h-12.42v-66.21Z"/><path class="d" d="M904.93,762.69c0-18.76,13.74-32.9,32.64-32.9s32.64,12.82,32.64,30.92v2.25h-52.46c0,11.89,9.12,22.73,22.2,22.73,10.31,0,15.99-6.87,20.22-16.39l9.91,8.19-.79,1.32c-7,11.63-16.78,17.31-29.6,17.31-20.35,0-34.75-13.74-34.75-33.43Zm15.2-10.84h35.42c-2.91-6.61-9.25-10.97-17.58-10.97s-14.67,4.36-17.84,10.97Z"/><path class="d" d="M976.82,706.65h12.42v23.13h25.77v11.5h-25.77v26.03c0,6.08,.26,16.78,8.72,16.78s8.72-10.7,8.72-16.78h12.42c0,14.01-4.49,28.81-21.54,28.81s-20.75-14.27-20.75-28.02v-61.45Z"/><path class="d" d="M1040.12,730.05v8.46c6.47-7.4,14.4-8.72,23.79-8.72l-2.38,11.76c-1.45-.26-2.91-.26-4.23-.26-10.84,0-17.18,6.61-17.18,19.95v34.89h-12.42v-66.07h12.42Z"/><path class="d" d="M1077.92,707.98c3.97,0,7,2.77,7,6.74s-3.17,6.74-7,6.74-7.27-2.64-7.27-6.74,3.3-6.74,7.27-6.74Zm-6.34,22.07h12.42v66.07h-12.42v-66.07Z"/><path class="d" d="M1093.51,763.21c0-19.29,14.27-33.43,33.96-33.43,14.54,0,24.32,6.61,31.05,18.77l-9.91,8.33c-4.1-9.38-9.65-16.12-21.14-16.12-12.82,0-20.35,10.7-20.35,22.46s7.53,22.2,20.35,22.2c11.36,0,17.05-6.34,21.28-15.59l9.91,8.06-.79,1.19c-6.61,11.63-16.65,17.31-30.26,17.31-19.69,0-34.09-13.61-34.09-33.17Z"/><path class="d" d="M1165.27,763.21c0-19.95,14.54-33.43,34.23-33.43,7.67,0,15.99,2.38,21.41,8.06v-6.08h12.42v64.36h-12.42v-9.25c-5.55,6.48-14.14,9.51-22.6,9.51-19.29,0-33.04-13.88-33.04-33.17Zm13.61-.13c0,12.55,9.38,22.33,22.07,22.33s19.96-10.04,19.96-22.33-6.87-22.33-19.96-22.33-22.07,9.78-22.07,22.33Z"/></g></svg>